<?xml version="1.0" encoding="utf-8"?>
<!-- Generator: Adobe Illustrator 27.5.0, SVG Export Plug-In . SVG Version: 6.00 Build 0)  -->
<svg version="1.1" id="Layer_1" xmlns="http://www.w3.org/2000/svg" xmlns:xlink="http://www.w3.org/1999/xlink" x="0px" y="0px"
	 viewBox="0 0 4000 4000" style="enable-background:new 0 0 4000 4000;" xml:space="preserve">
<g>
	<g>
		<rect style="fill:#FFFFFF;" width="4000" height="4000"/>
	</g>
	<g>
		<g>
			<path style="fill:#80B0FF;" d="M1958.336,3447.8L1958.336,3447.8c-773.742,0-1400.973-627.242-1400.973-1400.973v-0.006
				c0-773.736,627.231-1400.973,1400.973-1400.973s1400.973,627.237,1400.973,1400.973v0.006
				C3359.309,2820.558,2732.078,3447.8,1958.336,3447.8"/>
		</g>
		<g>
			<path style="fill:#25295B;" d="M583.305,2114.56l42.867,6.622c8.591,1.324,15.33,8.063,16.654,16.654l6.622,42.867l6.613-42.867
				c1.329-8.591,8.063-15.33,16.659-16.654l42.862-6.622l-42.862-6.617c-8.595-1.329-15.33-8.068-16.659-16.654l-6.613-42.867
				l-6.622,42.867c-1.324,8.586-8.063,15.325-16.654,16.654L583.305,2114.56z"/>
		</g>
		<g>
			<path style="fill:#25295B;" d="M1019.671,654.199l42.872,6.622c8.586,1.324,15.325,8.063,16.65,16.654l6.622,42.867l6.618-42.867
				c1.324-8.591,8.063-15.33,16.654-16.654l42.867-6.622l-42.867-6.617c-8.591-1.329-15.33-8.068-16.659-16.654l-6.613-42.867
				l-6.622,42.867c-1.325,8.586-8.064,15.325-16.65,16.654L1019.671,654.199z"/>
		</g>
		<g>
			<path style="fill:#25295B;" d="M2929.679,3325.507l42.872,6.622c8.586,1.324,15.325,8.063,16.649,16.654l6.622,42.867
				l6.617-42.867c1.325-8.591,8.064-15.33,16.654-16.654l42.867-6.622l-42.867-6.617c-8.591-1.329-15.33-8.068-16.659-16.654
				l-6.613-42.867l-6.622,42.867c-1.324,8.586-8.063,15.325-16.649,16.654L2929.679,3325.507z"/>
		</g>
		<g>
			<path style="fill:#25295B;" d="M3103.353,1044.522l57.021,8.802c11.424,1.766,20.393,10.73,22.154,22.154l8.802,57.021
				l8.802-57.021c1.766-11.424,10.73-20.388,22.154-22.154l57.025-8.802l-57.025-8.807c-11.424-1.766-20.388-10.726-22.154-22.15
				l-8.802-57.021l-8.802,57.021c-1.761,11.424-10.73,20.384-22.154,22.15L3103.353,1044.522z"/>
		</g>
		<g>
			<path style="fill:#25295B;" d="M3420,2013.001c0,8.969-7.266,16.24-16.235,16.24c-8.973,0-16.244-7.271-16.244-16.24
				c0-8.969,7.271-16.235,16.244-16.235C3412.734,1996.766,3420,2004.033,3420,2013.001"/>
		</g>
		<g>
			<path style="fill:#25295B;" d="M2073.084,3301.356c0,8.969-7.266,16.24-16.235,16.24c-8.974,0-16.244-7.271-16.244-16.24
				s7.271-16.235,16.244-16.235C2065.818,3285.121,2073.084,3292.387,2073.084,3301.356"/>
		</g>
		<g>
			<path style="fill:#25295B;" d="M1149.969,3073.928c0,8.969-7.266,16.24-16.235,16.24c-8.973,0-16.244-7.271-16.244-16.24
				s7.271-16.24,16.244-16.24C1142.703,3057.688,1149.969,3064.959,1149.969,3073.928"/>
		</g>
		<g>
			<path style="fill:#25295B;" d="M3114.034,1803.592c0,8.969-7.266,16.24-16.235,16.24c-8.974,0-16.244-7.271-16.244-16.24
				c0-8.969,7.271-16.24,16.244-16.24C3106.768,1787.353,3114.034,1794.624,3114.034,1803.592"/>
		</g>
		<g>
			<path style="fill:#25295B;" d="M673.273,2706.973c0,18.109-14.677,32.785-32.786,32.785c-18.109,0-32.786-14.677-32.786-32.785
				c0-18.109,14.676-32.786,32.786-32.786C658.596,2674.187,673.273,2688.864,673.273,2706.973"/>
		</g>
		<g>
			<path style="fill:#25295B;" d="M2862.574,1328.524c0,18.109-14.677,32.785-32.785,32.785c-18.109,0-32.786-14.677-32.786-32.785
				c0-18.109,14.677-32.786,32.786-32.786C2847.898,1295.738,2862.574,1310.415,2862.574,1328.524"/>
		</g>
		<g>
			<g>
				<path style="fill:#B76042;" d="M1277.5,3249.901c340.361,3.677,1241.73-241.954,1728.625-487.81
					c111.648-56.376,174.141-178.172,155.961-301.918c-63.746-433.889-230.811-816.12-441.157-1188.054l-226.53,927.865
					l-1162.222,630.663l-211.723,198.208l90.006,216.301L1277.5,3249.901z"/>
			</g>
			<g>
				<path style="fill:#A34F38;" d="M1214.434,3254.406c340.361,3.677,1241.73-241.955,1728.625-487.81
					c111.648-56.376,174.141-178.172,155.961-301.918c-63.745-433.889-230.811-816.12-441.157-1188.054l-226.53,927.866
					l-1162.222,630.663l-211.723,198.208l90.006,216.301L1214.434,3254.406z"/>
			</g>
			<g>
				<path style="fill:#650000;" d="M1285.376,3272.467c-2.754,0-5.43-0.014-8.12-0.044c-0.449-0.005-0.898-0.022-1.348-0.054
					l-67.036-4.744c-8.496-0.603-15.928-5.947-19.204-13.816l-90.01-216.299c-3.608-8.675-1.455-18.677,5.4-25.098l211.724-198.208
					c1.401-1.311,2.964-2.439,4.653-3.354l1153.452-625.903l224.16-918.172c2.192-8.975,9.639-15.701,18.789-16.968
					c9.136-1.272,18.149,3.181,22.695,11.221c250.527,442.983,387.412,811.802,443.838,1195.869
					c19.668,133.869-47.881,264.597-168.091,325.298C2549.395,3017.945,1649.312,3272.467,1285.376,3272.467z M1278.413,3227.386
					c2.158,0.02,4.36,0.032,6.567,0.032c329.424,0,1211.387-233.159,1710.996-485.432
					c102.871-51.948,160.674-163.884,143.823-278.54c-53.457-363.862-180.586-714.47-410.571-1130.351l-212.949,872.231
					c-1.504,6.174-5.552,11.423-11.138,14.456l-1159.683,629.284l-198.208,185.557l78.667,189.048L1278.413,3227.386z"/>
			</g>
			<g>
				<g>
					<g>
						<polyline style="fill:#29B860;" points="2083.33,1499.269 1969.588,1279.728 1916.548,1177.4 1728.589,814.526 
							978.728,1202.984 699.674,1347.58 806.323,1553.381 859.297,1655.699 973.039,1875.241 						"/>
					</g>
				</g>
				<g style="opacity:0.6;">
					<g>
						<polygon style="fill:#FFFFFF;" points="2083.33,1499.268 2032.364,1516.49 1947.491,1352.646 1894.452,1250.318 
							1706.492,887.445 956.632,1275.902 724.787,1396.01 699.674,1347.58 978.728,1202.984 1728.588,814.526 1916.548,1177.4 
							1969.588,1279.727 						"/>
					</g>
				</g>
				<g>
					<g>
						<path style="fill:#650000;" d="M973.057,1897.77c-8.149,0-16.011-4.434-20.02-12.168l-273.364-527.659
							c-2.744-5.305-3.276-11.482-1.47-17.178c1.807-5.693,5.806-10.437,11.108-13.184l279.053-144.595l749.863-388.459
							c5.308-2.744,11.479-3.269,17.178-1.467c5.693,1.807,10.435,5.803,13.184,11.108l354.741,684.739
							c5.723,11.045,1.406,24.639-9.639,30.361c-11.06,5.715-24.639,1.401-30.361-9.639l-344.38-664.741l-988.916,512.327
							l263.003,507.664c5.723,11.045,1.406,24.639-9.639,30.361C980.088,1896.954,976.543,1897.767,973.057,1897.77z"/>
					</g>
				</g>
				<g>
					<g>
						<path style="fill:#4FEC91;" d="M1963.258,1539.909l-113.677-219.532l-119.698-230.987
							c-58.505,30.332-130.509,7.434-160.841-51.07l-594.514,308.031c30.332,58.505,7.434,130.509-51.07,160.841l55.845,107.858
							l113.751,219.476"/>
					</g>
				</g>
				<g>
					<g>
						
							<ellipse transform="matrix(0.7071 -0.7071 0.7071 0.7071 -661.7554 1500.8151)" style="fill:#1FBC61;" cx="1480.766" cy="1549.217" rx="148.338" ry="148.338"/>
					</g>
				</g>
			</g>
			<g>
				<g>
					<g>
						<polyline style="fill:#29B860;" points="2560.182,1506.256 2518.74,1262.497 2499.401,1148.875 2430.942,745.985 
							1598.377,887.497 1288.536,940.193 1327.407,1168.703 1346.687,1282.297 1388.128,1526.055 						"/>
					</g>
				</g>
				<g style="opacity:0.6;">
					<g>
						<polygon style="fill:#FFFFFF;" points="2560.182,1506.255 2506.393,1507.129 2475.477,1325.215 2456.138,1211.593 
							2387.679,808.704 1555.115,950.215 1297.698,993.972 1288.536,940.193 1598.378,887.497 2430.942,745.985 2499.401,1148.875 
							2518.74,1262.497 						"/>
					</g>
				</g>
				<g>
					<g>
						<path style="fill:#650000;" d="M1388.101,1548.583c-10.781,0.002-20.308-7.766-22.178-18.752l-99.595-585.859
							c-1.001-5.889,0.381-11.934,3.833-16.807c3.457-4.873,8.706-8.174,14.6-9.175l309.844-52.698l832.563-141.511
							c5.884-1.011,11.938,0.381,16.807,3.835c4.873,3.457,8.174,8.706,9.175,14.597l129.238,760.269
							c2.085,12.263-6.167,23.894-18.433,25.979c-12.28,2.097-23.896-6.172-25.981-18.43L2412.51,771.964l-810.356,137.737
							l-287.637,48.921l95.82,563.66c2.085,12.263-6.167,23.894-18.433,25.979
							C1390.63,1548.478,1389.355,1548.583,1388.101,1548.583z"/>
					</g>
				</g>
				<g>
					<g>
						<path style="fill:#4FEC91;" d="M2433.437,1508.378l-41.382-243.73l-43.627-256.475
							c-64.965,11.064-126.568-32.684-137.632-97.649l-660.1,112.242c11.064,64.965-32.684,126.568-97.649,137.633l20.327,119.745
							l41.47,243.699"/>
					</g>
				</g>
				<g>
					<g>
						
							<ellipse transform="matrix(0.7071 -0.7071 0.7071 0.7071 -391.5941 1795.0754)" style="fill:#1FBC61;" cx="1971.051" cy="1370.234" rx="148.338" ry="148.338"/>
					</g>
				</g>
			</g>
			<g>
				<g>
					<g>
						<polyline style="fill:#29B860;" points="2938.241,1640.442 2973.408,1395.699 2989.779,1281.612 3047.939,877.107 
							2212.024,756.961 1900.925,712.278 1867.979,941.718 1851.561,1055.76 1816.393,1300.503 						"/>
					</g>
				</g>
				<g style="opacity:0.6;">
					<g>
						<polygon style="fill:#FFFFFF;" points="2938.241,1640.441 2886.767,1624.807 2913.022,1442.163 2929.394,1328.075 
							2987.554,923.571 2151.639,803.425 1893.185,766.28 1900.925,712.278 2212.024,756.961 3047.939,877.107 2989.779,1281.611 
							2973.408,1395.699 						"/>
					</g>
				</g>
				<g>
					<g>
						<path style="fill:#650000;" d="M2938.271,1662.97c-1.069,0-2.144-0.076-3.232-0.232c-12.314-1.77-20.859-13.186-19.092-25.498
							l106.494-741.042l-1102.427-158.42l-81.328,565.928c-1.768,12.319-13.232,20.864-25.498,19.092
							c-12.314-1.77-20.859-13.186-19.092-25.498l84.531-588.22c0.85-5.913,4.014-11.247,8.794-14.829
							c4.785-3.579,10.771-5.112,16.704-4.265l311.099,44.683l835.918,120.146c5.913,0.85,11.25,4.014,14.829,8.796
							s5.112,10.791,4.263,16.704l-109.697,763.333C2958.926,1654.872,2949.292,1662.97,2938.271,1662.97z"/>
					</g>
				</g>
				<g>
					<g>
						<path style="fill:#4FEC91;" d="M2816.93,1603.663l35.215-244.697l36.979-257.517c-65.233-9.354-110.487-69.86-101.133-135.093
							l-662.77-95.216c-9.354,65.233-69.86,110.487-135.093,101.133l-17.306,120.219l-35.122,244.695"/>
					</g>
				</g>
				<g>
					<g>
						
							<ellipse transform="matrix(0.7071 -0.7071 0.7071 0.7071 -232.3621 2100.2385)" style="fill:#1FBC61;" cx="2419.031" cy="1330.605" rx="148.339" ry="148.338"/>
					</g>
				</g>
			</g>
			<g>
				<g>
					<g>
						<polyline style="fill:#29B860;" points="2199.506,2011.592 2320.073,2227.46 2376.254,2328.097 2575.559,2684.866 
							1838.273,3096.691 1563.87,3249.929 1450.862,3047.55 1394.652,2946.973 1274.086,2731.104 						"/>
					</g>
				</g>
				<g>
					<g>
						<path style="fill:#650000;" d="M1563.872,3272.452c-2.061,0-4.126-0.283-6.143-0.854c-5.747-1.628-10.61-5.474-13.521-10.689
							l-289.785-518.821c-6.069-10.862-2.183-24.582,8.682-30.649c10.845-6.065,24.58-2.178,30.645,8.681l278.804,499.16
							l972.354-543.094l-365.063-653.611c-6.069-10.862-2.183-24.583,8.682-30.649c10.845-6.067,24.585-2.18,30.645,8.682
							l376.05,673.274c2.915,5.215,3.638,11.375,2.007,17.122c-1.626,5.747-5.469,10.613-10.688,13.525l-1011.685,565.064
							C1571.47,3271.483,1567.681,3272.452,1563.872,3272.452z"/>
					</g>
				</g>
				<g>
					<g>
						<path style="fill:#4FEC91;" d="M2099.443,2089.414l120.595,215.809l126.838,227.145
							c-57.544,32.117-78.099,104.824-45.982,162.369l-584.585,326.481c-32.117-57.544-104.825-78.1-162.369-45.982l-59.252-106.025
							l-120.507-215.84"/>
					</g>
				</g>
				<g>
					<g>
						
							<ellipse transform="matrix(0.7071 -0.7071 0.7071 0.7071 -1223.7626 2019.5059)" style="fill:#1FBC61;" cx="1825.878" cy="2486.965" rx="148.338" ry="148.338"/>
					</g>
				</g>
				<g>
					<g>
						<path style="fill:#650000;" d="M1353.316,2643.491c-3.076,6.513-3.068,14.362,0.712,21.131l179.763,321.872
							c6.213,11.125,20.268,15.107,31.396,8.895c46.363-25.873,105.111-9.241,130.967,37.075c2.984,5.349,7.968,9.29,13.861,10.96
							c5.89,1.669,12.203,0.931,17.546-2.056l584.585-326.48c11.141-6.214,15.119-20.278,8.901-31.401
							c-25.87-46.361-9.241-105.11,37.079-130.965c5.346-2.986,9.289-7.984,10.958-13.858c1.67-5.893,0.931-12.203-2.054-17.549
							l-247.44-442.96c-6.216-11.126-20.279-15.108-31.407-8.888c-11.138,6.215-15.106,20.283-8.889,31.407L2316.38,2525.1
							c-47.64,37.855-65.977,102.56-45.26,159.825l-547.544,305.794c-37.861-47.643-102.569-65.966-159.832-45.252l-169.411-303.351
							c-6.215-11.13-20.276-15.114-31.406-8.9C1358.566,2635.651,1355.299,2639.293,1353.316,2643.491z"/>
					</g>
				</g>
			</g>
			<g>
				<g>
					<g>
						<polyline style="fill:#29B860;" points="2626.997,2153.258 2674.832,2395.843 2697.107,2508.926 2776.203,2909.863 
							1947.658,3073.273 1639.301,3134.057 1594.479,2906.639 1572.159,2793.604 1524.324,2551.019 						"/>
					</g>
				</g>
				<g>
					<g>
						<path style="fill:#650000;" d="M1639.302,3156.581c-4.434,0-8.809-1.311-12.544-3.819c-4.961-3.327-8.398-8.489-9.556-14.351
							l-114.976-583.034c-2.407-12.205,5.537-24.05,17.744-26.455c12.183-2.422,24.048,5.535,26.455,17.739l110.62,560.94
							l286.255-56.426l806.445-159.052l-144.849-734.507c-2.407-12.205,5.537-24.05,17.744-26.455
							c12.178-2.41,24.043,5.534,26.455,17.739l149.204,756.602c1.152,5.862-0.063,11.943-3.394,16.904
							c-3.325,4.961-8.486,8.398-14.346,9.553l-828.545,163.411l-308.359,60.784
							C1642.212,3156.439,1640.752,3156.581,1639.302,3156.581z"/>
					</g>
				</g>
				<g>
					<g>
						<path style="fill:#4FEC91;" d="M2507.761,2196.289l47.88,242.537l50.307,255.248c-64.659,12.73-106.708,75.505-93.978,140.164
							l-656.928,129.519c-12.73-64.659-75.505-106.708-140.164-93.979l-23.528-119.158l-47.786-242.54"/>
					</g>
				</g>
				<g>
					<g>
						
							<ellipse transform="matrix(0.7071 -0.7071 0.7071 0.7071 -1138.1715 2231.5095)" style="fill:#1FBC61;" cx="2124.585" cy="2489.649" rx="148.338" ry="148.338"/>
					</g>
				</g>
			</g>
			<g>
				<g>
					<g>
						<polyline style="fill:#29B860;" points="2855.215,2204.489 2818.458,2448.997 2801.302,2562.97 2740.587,2967.099 
							1905.46,2841.588 1594.664,2794.847 1629.143,2565.633 1646.24,2451.69 1682.997,2207.182 						"/>
					</g>
				</g>
				<g>
					<g>
						<path style="fill:#650000;" d="M2740.586,2989.623c-1.113,0-2.231-0.083-3.35-0.252l-835.127-125.51l-310.796-46.741
							c-5.908-0.888-11.221-4.087-14.771-8.892c-3.545-4.807-5.044-10.825-4.155-16.731l88.335-587.664
							c1.851-12.302,13.262-20.776,25.625-18.926c12.3,1.848,20.771,13.32,18.926,25.623l-84.985,565.393l1101.372,165.554
							l111.279-740.339c1.851-12.3,13.296-20.781,25.625-18.924c12.3,1.848,20.771,13.321,18.926,25.623l-114.629,762.607
							c-0.889,5.906-4.087,11.221-8.892,14.771C2750.073,2988.094,2745.376,2989.623,2740.586,2989.623z"/>
					</g>
				</g>
				<g>
					<g>
						<path style="fill:#4FEC91;" d="M2728.452,2204.798l-36.698,244.479l-38.698,257.265
							c-65.165-9.816-125.918,35.106-135.734,100.271l-662.132-99.555c9.816-65.165-35.106-125.918-100.271-135.734l18.025-120.114
							l36.786-244.45"/>
					</g>
				</g>
				<g>
					<g>
						<circle style="fill:#1FBC61;" cx="2268.802" cy="2351.79" r="148.338"/>
					</g>
				</g>
			</g>
			<g>
				<path style="fill:#B76042;" d="M2740.314,2618.564c-661.566,242.265-1427.506,436.869-1417.145,527.415l-4.37,100.365
					l-0.135,3.243c-70.184,2.162-132.484-3.514-181.856-22.028c-46.759-17.478-80.049-59.237-87.842-108.564
					c-67.481-427.32-154.332-834.953-258.121-1225.423c-27.705-104.419,13.108-215.011,102.483-275.69
					c356.414-242.084,923.291-429.572,1529.448-557.191c119.556-25.136,239.111,42.254,279.474,157.531
					c75.094,214.335,147.079,448.987,216.903,697.693c21.668,77.031,43.109,155.413,64.373,234.967
					C3035.688,2346.208,2930.143,2549.056,2740.314,2618.564z"/>
			</g>
			<g style="opacity:0.4;">
				<path style="fill:#FFFFFF;" d="M1075.994,3168.548c-67.481-427.32-154.332-834.953-258.121-1225.423
					c-27.705-104.419,13.108-215.011,102.483-275.69c356.414-242.084,923.29-429.572,1529.448-557.191
					c96.861-20.365,193.708,20.015,248.455,97.376c-43.802-108.771-159.642-171.283-275.484-146.928
					c-606.157,127.619-1173.034,315.107-1529.448,557.191c-89.374,60.679-130.188,171.27-102.483,275.69
					c103.789,390.47,190.64,798.104,258.121,1225.423c4.076,25.799,15.179,49.484,31.484,68.751
					C1078.544,3181.502,1077.029,3175.098,1075.994,3168.548z"/>
			</g>
			<g>
				<path style="fill:#A34F38;" d="M2740.314,2618.564c-661.566,242.265-1427.506,436.869-1417.145,527.415l-4.37,100.365
					l-6.352-8.514c-26.286-2.32-53.032-0.631-79.542-0.214c-57.346,0.902-68.058-3.81-78.124-7.85
					c-26.621-10.684-61.137-36.644-65.859-70.274c-5.631-40.103,33.23-75.951,47.39-89.014
					c142.337-131.303,1071.056-393.891,1463.723-532.775c126.853-44.867,263.933-104.329,320.693-226.273
					c60.948-131.043,6.937-284.114-47.21-418.085c15.992,5.992,31.219,13.604,45.634,22.569
					c21.668,77.031,43.109,155.413,64.373,234.967C3035.688,2346.208,2930.143,2549.056,2740.314,2618.564z"/>
			</g>
			<g>
				<path style="fill:#650000;" d="M1291.294,3272.545c-66.284,0-119.609-7.859-162.402-23.877
					c-53.911-20.178-93.057-68.513-102.158-126.148c-65.547-414.924-152.231-826.46-257.637-1223.179
					c-30.205-113.667,14.629-234.268,111.558-300.1c417.788-283.743,1066.689-461.455,1537.48-560.574
					c130.132-27.4,261.421,46.597,305.391,172.117c91.25,260.525,183.413,566.138,281.758,934.299
					c26.68,99.895,15.088,205.449-32.642,297.212c-47.725,91.748-127.485,161.861-224.59,197.422
					c-236.953,86.777-488.389,167.807-710.225,239.299c-194.858,62.795-363.14,117.027-488.994,164.175
					c-175.234,65.645-199.941,93.774-203.174,101.568c0.654,11.816-8.018,22.236-19.932,23.598
					c-12.397,1.392-23.525-7.458-24.937-19.819c-8.071-70.576,170.063-134.136,723.218-312.398
					c221.44-71.365,472.427-152.249,708.555-238.723c180.151-65.974,278.687-255.437,229.194-440.708
					c-98.042-367.051-189.878-671.594-280.752-931.033c-36.509-104.236-145.498-165.674-253.594-142.927
					c-466.826,98.284-1109.727,274.136-1521.445,553.757c-81.123,55.095-118.633,156.072-93.335,251.267
					c105.806,398.205,192.808,811.27,258.594,1227.717c6.577,41.626,34.722,76.49,73.457,90.989
					c43.081,16.123,99.756,22.859,173.286,20.596c12.329-0.352,22.827,9.387,23.208,21.819c0.381,12.434-9.385,22.822-21.821,23.206
					C1309.756,3272.399,1300.4,3272.545,1291.294,3272.545z M1345.547,3143.421c0,0.007,0,0.015,0,0.022
					C1345.547,3143.436,1345.547,3143.429,1345.547,3143.421z"/>
			</g>
			<g>
				<g>
					<path style="fill:#B76042;" d="M3212.544,2202.867c-25.722,15.677-55.228,27.794-87.933,36.894
						c-16.261-60.994-31.172-116.763-45.002-168.477c-35.316-34.191-69.553-63.606-101.671-83.877
						c-23.2-14.641-51.49-19.19-78.203-12.974c-112.213,25.992-213.074,77.797-346.774,85.906
						c-114.961,9.145-201.857-57.165-252.22-149.422c-36.398-66.625-53.786-146.854-48.966-221.993
						c6.216-96.897,63.2-183.568,149.241-228.525c91.987-48.066,181.901-86.942,268.483-110.682
						c47.659-13.064,98.428-9.865,143.791,9.73c69.823,30.182,138.971,67.391,207.488,111.177
						c49.191,31.443,88.563,76.04,114.736,128.25c62.66,124.736,107.617,247.895,130.502,358.172
						c8.064,38.74,13.424,75.904,15.857,110.951C3285.656,2122.413,3259.079,2174.398,3212.544,2202.867z"/>
				</g>
				<g style="opacity:0.4;">
					<g>
						<path style="fill:#FFFFFF;" d="M3281.873,2067.996c-2.433-35.047-7.793-72.211-15.857-110.951
							c-22.885-110.276-67.842-233.436-130.502-358.172c-26.173-52.21-65.544-96.807-114.736-128.25
							c-68.517-43.786-137.665-80.995-207.488-111.177c-45.363-19.595-96.132-22.794-143.791-9.73
							c-86.582,23.74-176.496,62.615-268.483,110.682c-86.041,44.957-143.025,131.628-149.241,228.525
							c-1.042,16.257-0.983,32.756,0.02,49.3c6.3-96.795,63.255-183.355,149.221-228.273
							c91.987-48.066,181.901-86.942,268.483-110.682c0.021-0.006,0.042-0.012,0.063-0.017c4.497-1.229,9.235-1.336,13.81-0.441
							c17.851,3.491,34.71,12.19,47.478,25.165c13.964,14.192,22.814,32.503,31.418,50.457
							c30.064,62.734,60.127,125.467,90.189,188.201c-16.69-54.417-33.381-108.834-50.07-163.251
							c-4.54-14.802-7.949-29.965-9.465-45.373c-0.954-9.701-0.596-19.826,4.524-27.995c0.534-0.852,1.112-1.667,1.73-2.445
							c7.405-9.317,20.668-11.714,31.523-6.833c63.911,28.734,127.263,63.296,190.079,103.438
							c49.191,31.443,88.563,76.04,114.736,128.25c62.66,124.736,107.617,247.895,130.502,358.172
							c6.777,32.558,11.617,63.983,14.442,93.993C3282.1,2089.937,3282.639,2079.024,3281.873,2067.996z"/>
					</g>
				</g>
				<g>
					<path style="fill:#A34F38;" d="M3208.04,2202.867c-25.722,15.677-55.228,27.794-87.933,36.894
						c-16.261-60.994-31.172-116.763-45.002-168.477c-35.316-34.191-69.553-63.606-101.671-83.877
						c-23.2-14.641-51.49-19.19-78.203-12.974c-112.213,25.992-213.074,77.797-346.775,85.906
						c-114.961,9.145-201.857-57.165-252.22-149.422c2.883-5.721,6.217-11.217,9.91-16.488l2.703,0.721
						c11.377,28.022,38.475,82.374,95.455,111.132c62.995,31.794,128.029,14.898,202.713-4.505
						c104.534-27.158,204.054-81.365,211.722-85.59c28.641-15.779,67.615-39.274,126.133-49.552
						c36.76-6.457,55.141-9.685,78.022-2.928c48.018,14.181,61.421,44.001,133.294,126.854
						c19.461,22.433,46.128,48.336,74.193,38.561c14.776-5.181,24.732-19.641,28.741-34.822c3.153-12.118,3.108-24.731,2.388-37.254
						c8.064,38.74,13.424,75.904,15.857,110.951C3281.151,2122.413,3254.574,2174.398,3208.04,2202.867z"/>
				</g>
				<g>
					<path style="fill:#650000;" d="M3120.117,2262.279c-3.887,0-7.744-1.006-11.177-2.971c-5.22-2.983-9.033-7.93-10.581-13.738
						l-43.403-162.405c-36.318-34.802-66.953-59.922-93.535-76.692l0,0c-17.876-11.284-40.186-14.958-61.123-10.105
						c-38.516,8.926-75.293,20.847-114.233,33.467c-72.134,23.381-146.724,47.559-236.245,52.986
						c-79.81,6.321-153.203-20.835-211.86-78.608c-77.446-76.287-120.815-197.656-113.174-316.75
						c6.655-103.838,68.457-198.489,161.289-247.017c101.704-53.171,190.991-89.956,272.959-112.456
						c52.715-14.465,109.063-10.64,158.672,10.781c69.839,30.161,140.728,68.135,210.693,112.869
						c51.929,33.206,94.38,80.615,122.754,137.107c86.455,172.119,139.258,341.763,148.691,477.681
						c4.38,63.144-26.304,122.785-80.073,155.654c-26.582,16.247-58.081,29.494-93.623,39.375
						C3124.17,2262.006,3122.139,2262.279,3120.117,2262.279z M2985.464,1968.378c30.313,19.128,64.756,47.498,105.298,86.729
						c2.935,2.842,5.039,6.426,6.094,10.371l38.984,145.874c22.617-7.688,42.876-16.97,60.435-27.705
						c39.375-24.07,61.841-67.788,58.628-114.099c-9.028-130.103-60.166-293.672-144.004-460.581
						c-24.741-49.253-61.66-90.532-106.768-119.373c-67.93-43.433-136.66-80.264-204.287-109.465
						c-40.239-17.378-86.016-20.471-128.887-8.696c-78.833,21.638-165.19,57.271-264.014,108.936
						c-78.975,41.284-131.548,121.743-137.207,209.978c-6.724,104.814,32.466,215.415,99.834,281.772
						c49.063,48.33,110.352,71.047,177.104,65.767c84.224-5.11,156.045-28.389,225.503-50.901
						c38.125-12.358,77.554-25.139,117.949-34.5C2922.729,1944.93,2957.485,1950.719,2985.464,1968.378L2985.464,1968.378z"/>
				</g>
				<g>
					<path style="fill:#650000;" d="M3076.86,2041.855c29.892,26.16,51.205,60.639,70.726,95.063
						c-0.001,0.001-101.1-61.794-101.1-61.794c-10.649-6.511-14.006-20.422-7.495-31.074c6.977-11.625,23.08-14.359,33.535-5.759
						C3072.527,2038.291,3076.86,2041.855,3076.86,2041.855L3076.86,2041.855z"/>
				</g>
			</g>
			<g style="opacity:0.25;">
				<g>
					<path style="fill:#FFFFFF;" d="M1264.628,2144.667l-172.18,81.944c-34.001,16.182-71.333-3.777-82.814-44.276l-70.569-248.923
						c-11.214-39.555,6.49-83.875,39.75-99.511l171.244-80.501c33.815-15.896,70.84,3.861,82.434,43.988l71.506,247.48
						C1315.413,2084.376,1297.87,2128.847,1264.628,2144.667z"/>
				</g>
			</g>
			<g style="opacity:0.25;">
				<g>
					<path style="fill:#FFFFFF;" d="M1357.594,2382.242l-216.042,98.17c-22.286,10.127-46.464-3.085-53.951-29.481l-12.25-43.189
						c-7.332-25.85,4.07-54.84,25.711-65.374l214.08-104.203c22.39-10.898,47.134,2.084,54.84,28.774l14.212,49.222
						C1391.8,2342.501,1379.879,2372.115,1357.594,2382.242z"/>
				</g>
			</g>
			<g style="opacity:0.3;">
				<g>
					<path style="fill:#FFFFFF;" d="M1236.397,3011.051c56.743-25.988,115.905-46.765,174.434-68.377
						c58.302-21.528,116.045-44.534,174.552-65.541c117.209-42.084,235.86-80.113,354.535-117.794
						c122.667-38.949,245.466-77.485,368.055-116.681c122.433-39.146,244.523-79.608,364.75-125.18
						c52.281-19.817,105.346-40.558,150.048-74.988c11.08-8.533,21.594-17.694,31.246-27.836
						c9.903-10.406,16.314-22.584,23.921-34.628c15.01-23.764,27.378-48.977,38.6-74.719c5.465-12.536,10.281-25.146,14.582-38.131
						c1.716-5.181-6.244-8.552-8.803-3.722c-13.156,24.843-25.595,49.815-39.999,73.973c-6.976,11.7-15.102,22.52-23.854,32.947
						c-4.342,5.174-9.464,9.32-14.522,13.79c-5.39,4.763-10.031,10.353-15.188,15.386c-39.126,38.188-90.137,60.988-140.459,80.332
						c-118.448,45.533-239.278,84.93-360.057,123.698c-121.308,38.937-242.9,76.99-364.373,115.408
						c-117.743,37.239-235.345,74.868-351.677,116.373c-58.105,20.731-115.971,42.216-173.056,65.638
						c-57.134,23.442-111.754,51.457-166.369,80.111c-13.75,7.214-27.761,13.923-41.626,20.916
						C1225.08,3005.08,1230.387,3013.803,1236.397,3011.051L1236.397,3011.051z"/>
				</g>
			</g>
		</g>
		<g>
			
				<ellipse transform="matrix(0.9988 -0.0484 0.0484 0.9988 -81.8837 124.9604)" style="fill:#A34F38;" cx="2537.313" cy="1751.951" rx="123.953" ry="137.585"/>
		</g>
		<g>
			<circle style="fill:#FEDA24;" cx="2525.933" cy="1735.997" r="112.618"/>
		</g>
		<g>
			<path style="fill:#EA9F1B;" d="M2580.42,1637.434c12.482,12.015,21.984,27.47,26.849,45.432
				c14.264,52.665-16.684,106.872-69.126,121.077c-52.441,14.204-106.517-16.974-120.782-69.639
				c-1.334-4.925-2.271-9.864-2.834-14.783c-0.789,5.379-1.212,10.877-1.212,16.475c0,62.197,50.421,112.618,112.618,112.618
				c62.197,0,112.618-50.421,112.618-112.618C2638.551,1693.568,2615.079,1656.635,2580.42,1637.434z"/>
		</g>
		<g>
			<path style="fill:#650000;" d="M2525.933,1866.634c-72.031,0-130.635-58.604-130.635-130.637s58.604-130.64,130.635-130.64
				s130.635,58.606,130.635,130.64S2597.964,1866.634,2525.933,1866.634z M2525.933,1641.398c-52.163,0-94.6,42.437-94.6,94.6
				c0,52.161,42.437,94.597,94.6,94.597s94.6-42.437,94.6-94.597C2620.532,1683.834,2578.096,1641.398,2525.933,1641.398z"/>
		</g>
	</g>
</g>
</svg>
